:SAMPLES-PER-SECOND 30
:FULLY-SPECIFIED
:DEGREES
63
root  -23.21200033 39.33555423 32.66755652 1.304739952 1.546410203 -1.515769839
lowerback  7.614659786 0.9025740027 -3.033380032
upperback  0.635322988 0.9727749825 0.7572609782
thorax  -3.6770401 0.5360429883 2.386130095
lowerneck  -15.90130043 4.175469875 -4.089920044
upperneck  25.23810005 6.715410233 1.372800112
head  10.53349972 2.856149912 2.08295989
lclavicle  0 -5.34481991e-014 2.981770104e-014
lhumerus  -31.45700073 13.91930008 79.92500305
lradius  0.003583191894 6.643666666e-007 27.60390091
lwrist  -1.645157397e-007 -3.533851896e-007 -2.343539953
lhand  -5.505032044e-031 -15.8135004 33.60620117
lfingers  90 7.125020027 -90
lthumb  93.41605384 18.01962653 79.07819387
rclavicle  0 -5.34481991e-014 2.981770104e-014
rhumerus  -38.55260086 -18.97579956 -72.25170135
rradius  -1.296506525e-006 2.359789448e-007 42.27460098
rwrist  -2.281664457e-008 -8.593936229e-009 11.26589966
rhand  -1.345748685e-031 10.2737999 9.996669769
rfingers  -90 -7.125020027 -90
rthumb  -72.52445805 -22.91766803 -51.04506765
rfemur  -19.48310471 -3.607049465 22.16500282
rtibia  9.670418422e-007 1.119611625e-006 59.98150635
rfoot  2.556521167e-006 -15.20340347 2.112489223
rtoes  2.336001174 19.8686595 -96.84438506
lfemur  -14.56991291 -1.474199772 -20.76349258
ltibia  -3.641206786e-005 2.004581745e-007 23.09202957
lfoot  -5.693161143e-007 -10.73661613 -6.05587244
ltoes  -5.298979543 -19.31302686 -105.6655569
64
root  -23.2131117 39.29888808 32.84066568 1.237410069 1.778930783 -1.307109833
lowerback  7.614940166 0.8650929928 -3.38451004
upperback  0.7356629968 0.8927760124 0.7167260051
thorax  -3.572679996 0.4983350039 2.551150084
lowerneck  -15.85999966 4.08273983 -3.913089991
upperneck  25.1147995 6.573649883 1.206699848
head  10.49870014 2.790839911 1.972410083
lclavicle  0 -5.34481991e-014 2.981770104e-014
lhumerus  -30.43230057 13.57479954 80.31459808
lradius  0.003583191894 6.643666666e-007 27.70470047
lwrist  -1.645157397e-007 -3.533851896e-007 -2.133509874
lhand  -5.505032044e-031 -15.8135004 33.60620117
lfingers  90 7.125020027 -90
lthumb  93.41605384 18.01962653 79.07819387
rclavicle  0 -5.34481991e-014 2.981770104e-014
rhumerus  -38.47370148 -19.32710075 -72.15059662
rradius  -1.296506525e-006 2.359789448e-007 41.96139908
rwrist  -2.281664457e-008 -8.593936229e-009 11.06939983
rhand  -1.345748685e-031 10.2737999 9.996669769
rfingers  -90 -7.125020027 -90
rthumb  -72.52445805 -22.91766803 -51.04506765
rfemur  -20.16201019 -3.644029856 21.91589737
rtibia  9.670418422e-007 1.119611625e-006 59.99611282
rfoot  2.556521167e-006 -15.49910069 1.9763484
rtoes  2.336001174 19.8686595 -96.84438506
lfemur  -14.45931244 -1.579649806 -21.01869392
ltibia  -3.641206786e-005 2.004581745e-007 23.48762321
lfoot  -5.693161143e-007 -11.05531025 -6.169781208
ltoes  -5.298979543 -19.31302686 -105.6655569
65
root  -23.2079994 39.27222124 33.0208876 1.196240067 2.087091446 -1.054750085
lowerback  7.634580135 0.7854120135 -3.689949989
upperback  0.8170170188 0.7589079738 0.6485800147
thorax  -3.492919922 0.4332039952 2.667140007
lowerneck  -16.0958004 3.997600079 -4.246099949
upperneck  25.31489944 6.444900036 1.642580271
head  10.59060001 2.746969938 2.177409887
lclavicle  0 -5.34481991e-014 2.981770104e-014
lhumerus  -29.52770042 13.03540039 80.70089722
lradius  0.003583191894 6.643666666e-007 27.94079971
lwrist  -1.645157397e-007 -3.533851896e-007 -1.76552999
lhand  -5.505032044e-031 -15.8135004 33.60620117
lfingers  90 7.125020027 -90
lthumb  93.41605384 18.01962653 79.07819387
rclavicle  0 -5.34481991e-014 2.981770104e-014
rhumerus  -38.42660141 -19.7098999 -72.03959656
rradius  -1.296506525e-006 2.359789448e-007 41.68669891
rwrist  -2.281664457e-008 -8.593936229e-009 11.24800014
rhand  -1.345748685e-031 10.2737999 9.996669769
rfingers  -90 -7.125020027 -90
rthumb  -72.52445805 -22.91766803 -51.04506765
rfemur  -20.87140274 -3.753380299 21.58990288
rtibia  9.670418422e-007 1.119611625e-006 59.96660995
rfoot  2.556521167e-006 -15.65390873 1.911979675
rtoes  2.336001174 19.8686595 -96.84438506
lfemur  -14.28962135 -1.594769716 -21.34598923
ltibia  -3.641206786e-005 2.004581745e-007 23.76494026
lfoot  -5.693161143e-007 -11.36861897 -6.376193047
ltoes  -5.298979543 -19.31302686 -105.6655569
66
root  -23.1877785 39.25133352 33.22155569 1.051860094 2.399660587 -0.8665120006
lowerback  7.704170227 0.7138929963 -3.804069996
upperback  0.8591769934 0.6492059827 0.5717189908
thorax  -3.480279922 0.3789559901 2.663069963
lowerneck  -16.20459938 3.896650076 -4.570169926
upperneck  25.60790062 6.268660069 2.148860216
head  10.69250011 2.690079927 2.399769783
lclavicle  0 -5.34481991e-014 2.981770104e-014
lhumerus  -28.78510094 12.31770039 81.07540131
lradius  0.003583191894 6.643666666e-007 28.18170166
lwrist  -1.645157397e-007 -3.533851896e-007 -1.208070159
lhand  -5.505032044e-031 -15.8135004 33.60620117
lfingers  90 7.125020027 -90
lthumb  93.41605384 18.01962653 79.07819387
rclavicle  0 -5.34481991e-014 2.981770104e-014
rhumerus  -38.57509995 -19.93239975 -71.87139893
rradius  -1.296506525e-006 2.359789448e-007 41.45439911
rwrist  -2.281664457e-008 -8.593936229e-009 11.47990036
rhand  -1.345748685e-031 10.2737999 9.996669769
rfingers  -90 -7.125020027 -90
rthumb  -72.52445805 -22.91766803 -51.04506765
rfemur  -21.42400551 -3.977860212 21.27230453
rtibia  9.670418422e-007 1.119611625e-006 59.8500061
rfoot  2.556521167e-006 -15.80490494 2.032329321
rtoes  2.336001174 19.8686595 -96.84438506
lfemur  -13.92331505 -1.671429753 -21.63379288
ltibia  -3.641206786e-005 2.004581745e-007 24.01623535
lfoot  -5.693161143e-007 -11.64652061 -6.443483353
ltoes  -5.298979543 -19.31302686 -105.6655569
67
root  -23.16644473 39.22911216 33.43133401 0.9127221107 2.564741373 -0.5736011267
lowerback  7.681779861 0.6696180105 -4.122230053
upperback  0.9202039838 0.5646240115 0.5464479923
thorax  -3.400899887 0.3385770023 2.825530052
lowerneck  -15.90460014 3.850529909 -4.699100018
upperneck  25.43160057 6.178700447 2.28820014
head  10.56219959 2.660870075 2.443549871
lclavicle  0 -5.34481991e-014 2.981770104e-014
lhumerus  -28.02820015 11.85770035 81.49019623
lradius  0.003583191894 6.643666666e-007 28.35890007
lwrist  -1.645157397e-007 -3.533851896e-007 -0.8691939712
lhand  -5.505032044e-031 -15.8135004 33.60620117
lfingers  90 7.125020027 -90
lthumb  93.41605384 18.01962653 79.07819387
rclavicle  0 -5.34481991e-014 2.981770104e-014
rhumerus  -38.75220108 -19.76129913 -71.76059723
rradius  -1.296506525e-006 2.359789448e-007 41.36199951
rwrist  -2.281664457e-008 -8.593936229e-009 11.45129967
rhand  -1.345748685e-031 10.2737999 9.996669769
rfingers  -90 -7.125020027 -90
rthumb  -72.52445805 -22.91766803 -51.04506765
rfemur  -21.97029495 -4.058878899 20.83679771
rtibia  9.670418422e-007 1.119611625e-006 59.68419647
rfoot  2.556521167e-006 -15.895401 2.188579321
rtoes  2.336001174 19.8686595 -96.84438506
lfemur  -13.53430367 -1.835759878 -22.01849747
ltibia  -3.641206786e-005 2.004581745e-007 24.30070305
lfoot  -5.693161143e-007 -11.99240017 -6.333399773
ltoes  -5.298979543 -19.31302686 -105.6655569
68
root  -23.17222235 39.20066713 33.6151123 0.7684861422 2.582001686 -0.6628531218
lowerback  7.715139866 0.6532729864 -4.207719803
upperback  1.023749948 0.5389959812 0.6253430247
thorax  -3.311480045 0.3237859905 2.958640099
lowerneck  -15.67160034 3.820839882 -4.701320171
upperneck  25.21279907 6.111670017 2.307960033
head  10.4385004 2.639480114 2.427979946
lclavicle  0 -5.34481991e-014 2.981770104e-014
lhumerus  -27.13949966 11.45219994 81.84230042
lradius  0.003583191894 6.643666666e-007 28.49229813
lwrist  -1.645157397e-007 -3.533851896e-007 -0.6443319917
lhand  -5.505032044e-031 -15.8135004 33.60620117
lfingers  90 7.125020027 -90
lthumb  93.41605384 18.01962653 79.07819387
rclavicle  0 -5.34481991e-014 2.981770104e-014
rhumerus  -38.63159943 -19.81170082 -71.73329926
rradius  -1.296506525e-006 2.359789448e-007 40.9618988
rwrist  -2.281664457e-008 -8.593936229e-009 11.73980045
rhand  -1.345748685e-031 10.2737999 9.996669769
rfingers  -90 -7.125020027 -90
rthumb  -72.52445805 -22.91766803 -51.04506765
rfemur  -22.56170273 -3.8489995 20.96160126
rtibia  9.670418422e-007 1.119611625e-006 59.45440292
rfoot  2.556521167e-006 -16.14760017 1.93310976
rtoes  2.336001174 19.8686595 -96.84438506
lfemur  -13.25551033 -1.841580033 -21.9088974
ltibia  -3.641206786e-005 2.004581745e-007 24.60311699
lfoot  -5.693161143e-007 -12.26160526 -6.343111515
ltoes  -5.298979543 -19.31302686 -105.6655569
69
root  -23.18977746 39.16688754 33.78422354 0.6698359251 2.72004962 -0.8039308786
lowerback  7.805799961 0.6114060283 -4.217150211
upperback  1.106850028 0.4812130034 0.6598100066
thorax  -3.271359921 0.2931050062 3.005800009
lowerneck  -15.8270998 3.735359907 -4.592760086
upperneck  25.39959908 5.965660095 2.338289976
head  10.54539967 2.58039999 2.413120031
lclavicle  0 -5.34481991e-014 2.981770104e-014
lhumerus  -26.21629906 10.84869957 82.11599731
lradius  0.003583191894 6.643666666e-007 28.61980057
lwrist  -1.645157397e-007 -3.533851896e-007 -0.2182609588
lhand  -5.505032044e-031 -15.8135004 33.60620117
lfingers  90 7.125020027 -90
lthumb  93.41605384 18.01962653 79.07819387
rclavicle  0 -5.34481991e-014 2.981770104e-014
rhumerus  -38.63489914 -19.92050171 -71.86049652
rradius  -1.296506525e-006 2.359789448e-007 40.88909912
rwrist  -2.281664457e-008 -8.593936229e-009 11.95180035
rhand  -1.345748685e-031 10.2737999 9.996669769
rfingers  -90 -7.125020027 -90
rthumb  -72.52445805 -22.91766803 -51.04506765
rfemur  -23.20640373 -3.66383934 21.20059776
rtibia  9.670418422e-007 1.119611625e-006 59.1826973
rfoot  2.556521167e-006 -16.54179382 1.579719305
rtoes  2.336001174 19.8686595 -96.84438506
lfemur  -13.05379963 -1.803319931 -21.72400093
ltibia  -3.641206786e-005 2.004581745e-007 24.8150959
lfoot  -5.693161143e-007 -12.45289612 -6.448959351
ltoes  -5.298979543 -19.31302686 -105.6655569
